# This file uses centimeters as units for non-parametric coordinates.

mtllib deadlyPendulumCollider.mtl
v -2.435158 -3.074998 -0.722884
v -1.312343 -4.231281 -0.722884
v -2.226718 -2.951187 -0.722884
v -2.472968 -2.507937 -0.722884
v 2.472968 -2.507937 -0.722884
v 2.226718 -2.951187 -0.722884
v 1.312343 -4.231281 -0.722884
v 2.435158 -3.074998 -0.722884
v -2.242597 -3.696446 -0.722884
v 2.242597 -3.696446 -0.722884
v -2.050035 -4.064063 -0.722884
v 2.050035 -4.064063 -0.722884
v -1.712822 -4.499072 -0.722884
v 1.712822 -4.499072 -0.722884
v -1.267548 -4.775864 -0.722884
v 0.000000 -3.999082 -0.722884
v 1.267548 -4.775864 -0.722884
v -0.665827 -4.992484 -0.722884
v 0.665827 -4.992484 -0.722884
v 0.000000 -5.076725 -0.722884
v -1.432001 -3.747165 -0.722884
v 1.432001 -3.747165 -0.722884
v -2.435158 -3.074998 0.709779
v -1.513901 -4.177657 0.709779
v -2.226718 -2.951187 0.709779
v -2.472968 -2.507937 0.709779
v 2.435158 -3.074998 0.709779
v 2.472968 -2.507937 0.709779
v 2.226718 -2.951187 0.709779
v 1.513901 -4.177657 0.709779
v -2.242597 -3.696446 0.709779
v 2.242597 -3.696446 0.709779
v -2.050035 -4.064063 0.709779
v 2.050035 -4.064063 0.709779
v -1.712822 -4.499072 0.709779
v 1.712822 -4.499072 0.709779
v -1.267548 -4.775864 0.709779
v 0.000000 -3.999082 0.709779
v 1.267548 -4.775864 0.709779
v -0.665827 -4.992484 0.709779
v 0.665827 -4.992484 0.709779
v 0.000000 -5.076725 0.709779
v -1.432001 -3.747165 0.709779
v 1.432001 -3.747165 0.709779
vt 0.542325 0.000000
vt 1.000000 0.000000
vt 0.554633 0.411520
vt 0.000000 0.670111
vt 0.000000 0.000000
vt 1.000000 0.000000
vt 1.000000 0.999806
vt 0.000000 1.000000
vt 0.500000 0.000000
vt 1.000000 1.000000
vt 0.000000 1.000000
vt 0.500000 0.000000
vt 1.000000 1.000000
vt 0.000000 1.000000
vt 0.000000 0.000000
vt 1.000000 0.000000
vt 0.500000 1.000000
vt 0.000000 0.000000
vt 1.000000 0.000000
vt 0.500000 1.000000
vt 0.500000 0.000000
vt 1.000000 1.000000
vt 0.000000 1.000000
vt 0.500000 0.000000
vt 1.000000 1.000000
vt 0.000000 1.000000
vt 0.000000 0.000000
vt 1.000000 0.000000
vt 1.000000 1.000000
vt 0.000000 1.000000
vt 0.000000 0.000000
vt 1.000000 0.000000
vt 1.000000 1.000000
vt 0.000000 1.000000
vt 0.500000 0.000000
vt 1.000000 1.000000
vt 0.000000 1.000000
vt 0.500000 0.000000
vt 1.000000 1.000000
vt 0.000000 1.000000
vt 0.500000 0.000000
vt 1.000000 1.000000
vt 0.000000 1.000000
vt 0.500000 0.000000
vt 1.000000 1.000000
vt 0.000000 1.000000
vt -0.364414 -0.314388
vt 1.000276 0.999415
vt 0.000000 1.000000
vt -0.000276 0.999415
vt 1.364414 -0.314388
vt 1.000000 1.000000
vt 0.081509 0.450283
vt 1.000000 0.000000
vt 0.500000 1.000000
vt 0.000000 0.000000
vt 0.918491 0.450283
vt 0.542325 0.000000
vt 1.000000 0.000000
vt 0.410735 0.452645
vt 0.000000 0.670111
vt 0.000000 0.000000
vt 1.000000 0.000000
vt 0.826745 0.609020
vt 0.000000 1.000000
vt 0.500000 0.000000
vt 1.000000 1.000000
vt 0.000000 1.000000
vt 0.500000 0.000000
vt 1.000000 1.000000
vt 0.000000 1.000000
vt 0.000000 0.000000
vt 1.000000 0.000000
vt 0.500000 1.000000
vt 0.000000 0.000000
vt 1.000000 0.000000
vt 0.500000 1.000000
vt 0.500000 0.000000
vt 1.000000 1.000000
vt 0.000000 1.000000
vt 0.500000 0.000000
vt 1.000000 1.000000
vt 0.000000 1.000000
vt 0.000000 0.000000
vt 1.000000 0.000000
vt 1.000000 1.000000
vt 0.000000 1.000000
vt 0.000000 0.000000
vt 1.000000 0.000000
vt 1.000000 1.000000
vt 0.000000 1.000000
vt 0.500000 0.000000
vt 1.000000 1.000000
vt 0.000000 1.000000
vt 0.500000 0.000000
vt 1.000000 1.000000
vt 0.000000 1.000000
vt 0.500000 0.000000
vt 1.000000 1.000000
vt 0.000000 1.000000
vt 0.500000 0.000000
vt 1.000000 1.000000
vt 0.000000 1.000000
vt -0.642287 -1.253754
vt 1.105890 0.994757
vt 0.000000 1.000000
vt -0.105890 0.994757
vt 1.642287 -1.253754
vt 1.000000 1.000000
vt 1.000000 0.000000
vt 0.500000 1.000000
vt 0.000000 0.000000
vt 0.423333 0.449095
vt 0.000000 0.670111
vt 0.542325 0.000000
vt 0.000000 0.000000
vt 1.000000 0.000000
vt 0.842020 0.643341
vt 1.000000 1.000000
vt 0.000000 1.000000
vt 1.000000 1.000000
vt 0.000000 1.000000
vt 0.000000 0.000000
vt 1.000000 0.000000
vt 0.000000 0.000000
vt 1.000000 0.000000
vt 1.000000 1.000000
vt 0.000000 1.000000
vt 1.000000 1.000000
vt 0.000000 1.000000
vt 0.000000 0.000000
vt 1.000000 0.000000
vt 0.000000 0.000000
vt 1.000000 0.000000
vt 1.000000 1.000000
vt 0.000000 1.000000
vt 1.000000 1.000000
vt 0.000000 1.000000
vt 1.000000 1.000000
vt 0.000000 1.000000
vt 1.000000 1.000000
vt 0.000000 1.000000
vt -0.426709 -0.736469
vt 1.117390 0.994657
vt -0.117390 0.994657
vt 1.426709 -0.736469
vt 0.105475 0.651281
vt 0.894525 0.651281
vn 0.000000 0.000000 1.000000
vn 0.000000 0.000000 1.000000
vn 0.000000 0.000000 1.000000
vn 0.000000 0.000000 1.000000
vn 0.000000 0.000000 1.000000
vn 0.000000 0.000000 1.000000
vn 0.000000 0.000000 1.000000
vn 0.000000 0.000000 1.000000
vn 0.000000 0.000000 1.000000
vn 0.000000 0.000000 1.000000
vn 0.000000 0.000000 1.000000
vn 0.000000 0.000000 1.000000
vn 0.000000 0.000000 1.000000
vn 0.000000 0.000000 1.000000
vn 0.000000 0.000000 1.000000
vn 0.000000 0.000000 1.000000
vn 0.000000 0.000000 1.000000
vn -0.000000 0.000000 1.000000
vn -0.000000 0.000000 1.000000
vn -0.000000 0.000000 1.000000
vn 0.000000 0.000000 1.000000
vn 0.000000 0.000000 1.000000
vn 0.000000 0.000000 1.000000
vn -0.000000 0.000000 1.000000
vn -0.000000 0.000000 1.000000
vn -0.000000 0.000000 1.000000
vn -0.000000 0.000000 1.000000
vn -0.000000 0.000000 1.000000
vn -0.000000 0.000000 1.000000
vn -0.000000 0.000000 1.000000
vn 0.000000 0.000000 1.000000
vn 0.000000 0.000000 1.000000
vn 0.000000 0.000000 1.000000
vn 0.000000 0.000000 1.000000
vn 0.000000 0.000000 1.000000
vn 0.000000 0.000000 1.000000
vn 0.000000 0.000000 1.000000
vn 0.000000 0.000000 1.000000
vn 0.000000 0.000000 1.000000
vn 0.000000 0.000000 1.000000
vn 0.000000 0.000000 1.000000
vn 0.000000 0.000000 1.000000
vn 0.000000 0.000000 1.000000
vn 0.000000 0.000000 1.000000
vn 0.000000 0.000000 1.000000
vn 0.000000 0.000000 1.000000
vn 0.000000 0.000000 1.000000
vn 0.000000 0.000000 1.000000
vn 0.000000 0.000000 1.000000
vn 0.000000 0.000000 1.000000
vn 0.000000 0.000000 1.000000
vn 0.000000 0.000000 1.000000
vn -0.000000 0.000000 1.000000
vn -0.000000 0.000000 1.000000
vn -0.000000 0.000000 1.000000
vn 0.000000 0.000000 1.000000
vn 0.000000 0.000000 1.000000
vn 0.000000 0.000000 1.000000
vn 0.000000 0.000000 -1.000000
vn 0.000000 0.000000 -1.000000
vn 0.000000 0.000000 -1.000000
vn 0.000000 0.000000 -1.000000
vn -0.000000 0.000000 -1.000000
vn -0.000000 0.000000 -1.000000
vn -0.000000 0.000000 -1.000000
vn -0.000000 0.000000 -1.000000
vn 0.000000 0.000000 -1.000000
vn 0.000000 0.000000 -1.000000
vn 0.000000 0.000000 -1.000000
vn 0.000000 0.000000 -1.000000
vn 0.000000 0.000000 -1.000000
vn 0.000000 0.000000 -1.000000
vn 0.000000 0.000000 -1.000000
vn 0.000000 0.000000 -1.000000
vn 0.000000 0.000000 -1.000000
vn 0.000000 0.000000 -1.000000
vn 0.000000 0.000000 -1.000000
vn 0.000000 0.000000 -1.000000
vn 0.000000 0.000000 -1.000000
vn 0.000000 0.000000 -1.000000
vn 0.000000 0.000000 -1.000000
vn 0.000000 0.000000 -1.000000
vn 0.000000 0.000000 -1.000000
vn 0.000000 0.000000 -1.000000
vn 0.000000 0.000000 -1.000000
vn 0.000000 0.000000 -1.000000
vn 0.000000 0.000000 -1.000000
vn 0.000000 0.000000 -1.000000
vn 0.000000 0.000000 -1.000000
vn 0.000000 0.000000 -1.000000
vn 0.000000 0.000000 -1.000000
vn 0.000000 0.000000 -1.000000
vn 0.000000 0.000000 -1.000000
vn 0.000000 0.000000 -1.000000
vn 0.000000 0.000000 -1.000000
vn 0.000000 0.000000 -1.000000
vn 0.000000 0.000000 -1.000000
vn 0.000000 0.000000 -1.000000
vn 0.000000 0.000000 -1.000000
vn 0.000000 0.000000 -1.000000
vn 0.000000 0.000000 -1.000000
vn 0.000000 0.000000 -1.000000
vn 0.000000 0.000000 -1.000000
vn 0.000000 0.000000 -1.000000
vn 0.000000 0.000000 -1.000000
vn 0.000000 0.000000 -1.000000
vn 0.000000 0.000000 -1.000000
vn -0.000000 0.000000 -1.000000
vn -0.000000 0.000000 -1.000000
vn -0.000000 0.000000 -1.000000
vn -0.000000 0.000000 -1.000000
vn -0.000000 0.000000 -1.000000
vn -0.000000 0.000000 -1.000000
vn 0.000000 0.000000 -1.000000
vn 0.000000 0.000000 -1.000000
vn 0.000000 0.000000 -1.000000
vn 0.874157 0.485643 0.000000
vn 0.874157 0.485643 0.000000
vn 0.874157 0.485643 0.000000
vn 0.874157 0.485643 0.000000
vn -0.997785 -0.066530 0.000000
vn -0.981728 -0.190290 0.000000
vn -0.981728 -0.190290 0.000000
vn -0.997785 -0.066530 0.000000
vn 0.981728 -0.190290 0.000000
vn 0.997785 -0.066530 0.000000
vn 0.997785 -0.066530 0.000000
vn 0.981728 -0.190290 0.000000
vn -0.874157 0.485643 0.000000
vn -0.874157 0.485643 0.000000
vn -0.874157 0.485643 0.000000
vn -0.874157 0.485643 0.000000
vn -0.931850 -0.362844 0.000000
vn -0.931850 -0.362844 0.000000
vn 0.931850 -0.362844 0.000000
vn 0.931850 -0.362844 0.000000
vn -0.834589 -0.550873 0.000000
vn -0.834589 -0.550873 0.000000
vn 0.834589 -0.550873 0.000000
vn 0.834589 -0.550873 0.000000
vn -0.672905 -0.739729 0.000000
vn -0.672905 -0.739729 0.000000
vn 0.672905 -0.739729 0.000000
vn 0.672905 -0.739729 0.000000
vn -0.426298 -0.904583 0.000000
vn -0.426298 -0.904583 0.000000
vn 0.426298 -0.904583 0.000000
vn 0.426298 -0.904583 0.000000
vn -0.230940 -0.972968 0.000000
vn -0.230940 -0.972968 0.000000
vn 0.230940 -0.972968 0.000000
vn 0.230940 -0.972968 0.000000
vn 0.000000 -1.000000 0.000000
vn 0.000000 -1.000000 0.000000
vn 0.707667 0.706546 0.000000
vn 0.707667 0.706546 0.000000
vn 0.707667 0.706546 0.000000
vn 0.707667 0.706546 0.000000
vn -0.707667 0.706546 0.000000
vn -0.707667 0.706546 0.000000
vn -0.707667 0.706546 0.000000
vn -0.707667 0.706546 0.000000
vn -0.173259 0.984876 0.000000
vn -0.173259 0.984876 0.000000
vn -0.173259 0.984876 0.000000
vn -0.173259 0.984876 0.000000
vn 0.173259 0.984876 0.000000
vn 0.173259 0.984876 0.000000
vn 0.173259 0.984876 0.000000
vn 0.173259 0.984876 0.000000
usemtl initialShadingGroup
f 23/115/1 24/2/2 25/113/3 26/114/4
f 27/116/5 28/117/6 29/118/7 30/8/8
f 24/9/9 23/119/10 31/120/11
f 30/12/12 32/121/13 27/122/14
f 31/123/15 33/124/16 24/17/17
f 34/125/18 32/126/19 30/20/20
f 24/21/21 33/127/22 35/128/23
f 30/24/24 36/129/25 34/130/26
f 35/131/27 37/132/28 38/29/29 24/30/30
f 39/133/31 36/134/32 30/33/33 38/34/34
f 38/35/35 37/135/36 40/136/37
f 38/38/38 41/137/39 39/138/40
f 38/41/41 40/139/42 42/140/43
f 38/44/44 42/141/45 41/142/46
f 43/143/47 25/144/48 24/49/49
f 29/145/50 44/146/51 30/52/52
f 43/147/53 24/54/54 38/55/55
f 30/56/56 44/148/57 38/55/58
f 1/58/59 4/61/60 3/60/61 2/59/62
f 8/62/63 7/65/64 6/64/65 5/63/66
f 2/66/67 9/68/68 1/67/69
f 7/69/70 8/71/71 10/70/72
f 9/72/73 2/74/74 11/73/75
f 12/75/76 7/77/77 10/76/78
f 2/78/79 13/80/80 11/79/81
f 7/81/82 12/83/83 14/82/84
f 13/84/85 2/87/86 16/86/87 15/85/88
f 17/88/89 16/91/90 7/90/91 14/89/92
f 16/92/93 18/94/94 15/93/95
f 16/95/96 17/97/97 19/96/98
f 16/98/99 20/100/100 18/99/101
f 16/101/102 19/103/103 20/102/104
f 21/104/105 2/106/106 3/105/107
f 6/107/108 7/109/109 22/108/110
f 21/53/111 16/111/112 2/110/113
f 7/112/114 16/111/115 22/57/116
f 3/3/117 4/4/118 26/114/119 25/113/120
f 4/4/121 1/1/122 23/115/123 26/114/124
f 8/5/125 5/6/126 28/117/127 27/116/128
f 5/6/129 6/7/130 29/118/131 28/117/132
f 1/10/122 9/11/133 31/120/134 23/119/123
f 10/13/135 8/14/125 27/122/128 32/121/136
f 9/15/133 11/16/137 33/124/138 31/123/134
f 12/18/139 10/19/135 32/126/136 34/125/140
f 11/22/137 13/23/141 35/128/142 33/127/138
f 14/25/143 12/26/139 34/130/140 36/129/144
f 13/27/141 15/28/145 37/132/146 35/131/142
f 17/31/147 14/32/143 36/134/144 39/133/148
f 15/36/145 18/37/149 40/136/150 37/135/146
f 19/39/151 17/40/147 39/138/148 41/137/152
f 18/42/149 20/43/153 42/140/154 40/139/150
f 20/45/153 19/46/151 41/142/152 42/141/154
f 21/47/155 3/48/156 25/144/157 43/143/158
f 6/50/159 22/51/160 44/146/161 29/145/162
f 22/57/163 16/111/164 38/55/165 44/148/166
f 16/111/167 21/53/168 43/147/169 38/55/170
