# This file uses centimeters as units for non-parametric coordinates.

mtllib pendulumMeshCollider.mtl
v -2.435158 -3.074998 -0.722884
v -1.776139 -3.747705 -0.722884
v -2.226718 -2.805083 -0.722884
v -2.472968 -2.361833 -0.722884
v 2.472968 -2.361833 -0.722884
v 2.226718 -2.805083 -0.722884
v 1.776139 -3.747705 -0.722884
v 2.435158 -3.074998 -0.722884
v -2.242597 -3.696446 -0.722884
v 2.242597 -3.696446 -0.722884
v -2.050035 -4.064063 -0.722884
v 2.050035 -4.064063 -0.722884
v -1.712822 -4.499072 -0.722884
v 1.712822 -4.499072 -0.722884
v -1.267548 -4.775864 -0.722884
v 0.000000 -4.061090 -0.722884
v 1.267548 -4.775864 -0.722884
v -0.665827 -4.992484 -0.722884
v 0.665827 -4.992484 -0.722884
v 0.000000 -5.076725 -0.722884
v -1.883856 -2.930960 -0.722884
v -1.712561 -3.273549 -0.722884
v 1.712561 -3.273549 -0.722884
v 1.883856 -2.930960 -0.722884
v -1.369972 -3.224608 -0.722884
v 1.369972 -3.224608 -0.722884
v 0.000000 -3.737592 -0.722884
v -0.926055 -2.936679 -0.722884
v 0.926055 -2.936679 -0.722884
v -0.775884 -2.235881 -0.722884
v 0.000000 -3.053479 -0.722884
v 0.775884 -2.235881 -0.722884
v 0.000000 4.655256 -0.722884
v -0.274146 3.736303 -0.722884
v 0.274146 3.736303 -0.722884
v -2.435158 -3.074998 0.709779
v -1.776139 -3.747705 0.709779
v -2.226718 -2.805083 0.709779
v -2.472968 -2.361833 0.709779
v 2.435158 -3.074998 0.709779
v 2.472968 -2.361833 0.709779
v 2.226718 -2.805083 0.709779
v 1.776139 -3.747705 0.709779
v -2.242597 -3.696446 0.709779
v 2.242597 -3.696446 0.709779
v -2.050035 -4.064063 0.709779
v 2.050035 -4.064063 0.709779
v -1.712822 -4.499072 0.709779
v 1.712822 -4.499072 0.709779
v -1.267548 -4.775864 0.709779
v 0.000000 -4.061090 0.709779
v 1.267548 -4.775864 0.709779
v -0.665827 -4.992484 0.709779
v 0.665827 -4.992484 0.709779
v 0.000000 -5.076725 0.709779
v -1.712561 -3.273549 0.709779
v -1.883856 -2.930960 0.709779
v 1.883856 -2.930960 0.709779
v 1.712561 -3.273549 0.709779
v -1.369972 -3.224608 0.709779
v 1.369972 -3.224608 0.709779
v 0.000000 -3.737592 0.709779
v -0.926055 -2.936679 0.709779
v 0.926055 -2.936679 0.709779
v 0.000000 -3.053479 0.709779
v -0.775884 -2.235881 0.709779
v 0.775884 -2.235881 0.709779
v 0.000000 4.655256 0.709779
v -0.274146 3.736303 0.709779
v 0.274146 3.736303 0.709779
vt 0.542325 0.000000
vt 1.000000 0.000000
vt 0.554740 0.411470
vt 0.000000 0.670111
vt 0.000000 0.000000
vt 1.000000 0.000000
vt 1.000000 1.000000
vt 0.000000 1.000000
vt 0.500000 0.000000
vt 1.000000 1.000000
vt 0.000000 1.000000
vt 0.500000 0.000000
vt 1.000000 1.000000
vt 0.000000 1.000000
vt 0.000000 0.000000
vt 1.000000 0.000000
vt 0.500000 1.000000
vt 0.000000 0.000000
vt 1.000000 0.000000
vt 0.500000 1.000000
vt 0.500000 0.000000
vt 1.000000 1.000000
vt 0.000000 1.000000
vt 0.500000 0.000000
vt 1.000000 1.000000
vt 0.000000 1.000000
vt 0.000000 0.000000
vt 1.000000 0.000000
vt 1.000000 1.000000
vt 0.000000 1.000000
vt 0.000000 0.000000
vt 1.000000 0.000000
vt 1.000000 1.000000
vt 0.000000 1.000000
vt 0.500000 0.000000
vt 1.000000 1.000000
vt 0.000000 1.000000
vt 0.500000 0.000000
vt 1.000000 1.000000
vt 0.000000 1.000000
vt 0.500000 0.000000
vt 1.000000 1.000000
vt 0.000000 1.000000
vt 0.500000 0.000000
vt 1.000000 1.000000
vt 0.000000 1.000000
vt 0.000000 0.000000
vt 1.000000 0.000000
vt 1.000000 1.000000
vt 0.000000 1.000000
vt 0.000000 0.000000
vt 1.000000 0.000000
vt 1.000000 1.000000
vt 0.000000 1.000000
vt 0.500000 0.000000
vt 1.000000 1.000000
vt 0.000000 1.000000
vt 0.500000 0.000000
vt 1.000000 1.000000
vt 0.000000 1.000000
vt 0.000000 0.000000
vt 1.000000 0.000000
vt 1.000000 1.000000
vt 0.000000 1.000000
vt 0.000000 0.000000
vt 1.000000 0.000000
vt 1.000000 1.000000
vt 0.000000 1.000000
vt 0.000000 0.000000
vt 1.000000 0.000000
vt 0.500000 1.000000
vt 0.000000 0.000000
vt 1.000000 0.000000
vt 0.500000 1.000000
vt 0.000000 0.000000
vt 1.000000 0.000000
vt 1.000000 1.000000
vt 0.000000 1.000000
vt 0.000000 0.000000
vt 1.000000 0.000000
vt 1.000000 1.000000
vt 0.000000 1.000000
vt 0.000000 0.000000
vt 1.000000 0.000000
vt 1.000000 1.000000
vt 0.000000 1.000000
vt 0.000000 0.000000
vt 1.000000 0.000000
vt 1.000000 1.000000
vt 0.000000 1.000000
vt 0.542325 0.000000
vt 1.000000 0.000000
vt 0.554740 0.411470
vt 0.000000 0.670111
vt 0.000000 0.000000
vt 1.000000 0.000000
vt 1.000000 1.000000
vt 0.000000 1.000000
vt 0.500000 0.000000
vt 1.000000 1.000000
vt 0.000000 1.000000
vt 0.500000 0.000000
vt 1.000000 1.000000
vt 0.000000 1.000000
vt 0.000000 0.000000
vt 1.000000 0.000000
vt 0.500000 1.000000
vt 0.000000 0.000000
vt 1.000000 0.000000
vt 0.500000 1.000000
vt 0.500000 0.000000
vt 1.000000 1.000000
vt 0.000000 1.000000
vt 0.500000 0.000000
vt 1.000000 1.000000
vt 0.000000 1.000000
vt 0.000000 0.000000
vt 1.000000 0.000000
vt 1.000000 1.000000
vt 0.000000 1.000000
vt 0.000000 0.000000
vt 1.000000 0.000000
vt 1.000000 1.000000
vt 0.000000 1.000000
vt 0.500000 0.000000
vt 1.000000 1.000000
vt 0.000000 1.000000
vt 0.500000 0.000000
vt 1.000000 1.000000
vt 0.000000 1.000000
vt 0.500000 0.000000
vt 1.000000 1.000000
vt 0.000000 1.000000
vt 0.500000 0.000000
vt 1.000000 1.000000
vt 0.000000 1.000000
vt 0.000000 0.000000
vt 1.000000 0.000000
vt 1.000000 1.000000
vt 0.000000 1.000000
vt 0.000000 0.000000
vt 1.000000 0.000000
vt 1.000000 1.000000
vt 0.000000 1.000000
vt 0.500000 0.000000
vt 1.000000 1.000000
vt 0.000000 1.000000
vt 0.500000 0.000000
vt 1.000000 1.000000
vt 0.000000 1.000000
vt 0.000000 0.000000
vt 1.000000 0.000000
vt 1.000000 1.000000
vt 0.000000 1.000000
vt 0.000000 0.000000
vt 1.000000 0.000000
vt 1.000000 1.000000
vt 0.000000 1.000000
vt 0.000000 0.000000
vt 1.000000 0.000000
vt 0.500000 1.000000
vt 0.000000 0.000000
vt 1.000000 0.000000
vt 0.500000 1.000000
vt 0.000000 0.000000
vt 1.000000 0.000000
vt 1.000000 1.000000
vt 0.000000 1.000000
vt 0.000000 0.000000
vt 1.000000 0.000000
vt 1.000000 1.000000
vt 0.000000 1.000000
vt 0.000000 0.000000
vt 1.000000 0.000000
vt 1.000000 1.000000
vt 0.000000 1.000000
vt 0.000000 0.000000
vt 1.000000 0.000000
vt 1.000000 1.000000
vt 0.000000 1.000000
vt 0.554740 0.411470
vt 0.000000 0.670111
vt 0.542325 0.000000
vt 0.000000 0.000000
vt 1.000000 0.000000
vt 1.000000 1.000000
vt 1.000000 1.000000
vt 0.000000 1.000000
vt 1.000000 1.000000
vt 0.000000 1.000000
vt 0.000000 0.000000
vt 1.000000 0.000000
vt 0.000000 0.000000
vt 1.000000 0.000000
vt 1.000000 1.000000
vt 0.000000 1.000000
vt 1.000000 1.000000
vt 0.000000 1.000000
vt 0.000000 0.000000
vt 1.000000 0.000000
vt 0.000000 0.000000
vt 1.000000 0.000000
vt 1.000000 1.000000
vt 0.000000 1.000000
vt 1.000000 1.000000
vt 0.000000 1.000000
vt 1.000000 1.000000
vt 0.000000 1.000000
vt 1.000000 1.000000
vt 0.000000 1.000000
vt 0.000000 0.000000
vt 1.000000 0.000000
vt 1.000000 1.000000
vt 0.000000 0.000000
vt 1.000000 0.000000
vt 0.000000 1.000000
vt 1.000000 1.000000
vt 0.000000 1.000000
vt 1.000000 1.000000
vt 0.000000 1.000000
vt 0.000000 1.000000
vt 0.000000 0.000000
vt 1.000000 0.000000
vt 1.000000 1.000000
vt 1.000000 0.000000
vt 1.000000 1.000000
vt 0.000000 1.000000
vt 0.000000 0.000000
vt 1.000000 1.000000
vt 0.000000 1.000000
vt 0.000000 0.000000
vt 1.000000 0.000000
vt 1.000000 1.000000
vt 0.000000 1.000000
vn 0.000000 0.000000 1.000000
vn 0.000000 0.000000 1.000000
vn 0.000000 0.000000 1.000000
vn 0.000000 0.000000 1.000000
vn 0.000000 0.000000 1.000000
vn 0.000000 0.000000 1.000000
vn 0.000000 0.000000 1.000000
vn 0.000000 0.000000 1.000000
vn 0.000000 0.000000 1.000000
vn 0.000000 0.000000 1.000000
vn 0.000000 0.000000 1.000000
vn -0.000000 0.000000 1.000000
vn -0.000000 0.000000 1.000000
vn -0.000000 0.000000 1.000000
vn 0.000000 0.000000 1.000000
vn 0.000000 0.000000 1.000000
vn 0.000000 0.000000 1.000000
vn -0.000000 0.000000 1.000000
vn -0.000000 0.000000 1.000000
vn -0.000000 0.000000 1.000000
vn 0.000000 0.000000 1.000000
vn 0.000000 0.000000 1.000000
vn 0.000000 0.000000 1.000000
vn 0.000000 0.000000 1.000000
vn 0.000000 0.000000 1.000000
vn 0.000000 0.000000 1.000000
vn 0.000000 0.000000 1.000000
vn 0.000000 0.000000 1.000000
vn 0.000000 0.000000 1.000000
vn 0.000000 0.000000 1.000000
vn 0.000000 0.000000 1.000000
vn 0.000000 0.000000 1.000000
vn 0.000000 0.000000 1.000000
vn 0.000000 0.000000 1.000000
vn 0.000000 0.000000 1.000000
vn 0.000000 0.000000 1.000000
vn 0.000000 0.000000 1.000000
vn 0.000000 0.000000 1.000000
vn 0.000000 0.000000 1.000000
vn 0.000000 0.000000 1.000000
vn 0.000000 0.000000 1.000000
vn 0.000000 0.000000 1.000000
vn 0.000000 0.000000 1.000000
vn 0.000000 0.000000 1.000000
vn 0.000000 0.000000 1.000000
vn 0.000000 0.000000 1.000000
vn 0.000000 0.000000 1.000000
vn 0.000000 0.000000 1.000000
vn 0.000000 0.000000 1.000000
vn 0.000000 0.000000 1.000000
vn -0.000001 0.000000 1.000000
vn -0.000001 0.000000 1.000000
vn -0.000001 0.000000 1.000000
vn -0.000001 0.000000 1.000000
vn 0.000000 0.000000 1.000000
vn 0.000000 0.000000 1.000000
vn 0.000000 0.000000 1.000000
vn 0.000000 0.000000 1.000000
vn 0.000000 0.000000 1.000000
vn 0.000000 0.000000 1.000000
vn 0.000000 0.000000 1.000000
vn 0.000000 0.000000 1.000000
vn 0.000000 0.000000 1.000000
vn 0.000000 0.000000 1.000000
vn -0.000000 0.000000 1.000000
vn -0.000000 0.000000 1.000000
vn -0.000000 0.000000 1.000000
vn -0.000000 0.000000 1.000000
vn -0.000000 0.000000 1.000000
vn -0.000000 0.000000 1.000000
vn -0.000000 0.000000 1.000000
vn 0.000000 0.000000 1.000000
vn 0.000000 0.000000 1.000000
vn 0.000000 0.000000 1.000000
vn -0.000000 0.000000 1.000000
vn -0.000000 0.000000 1.000000
vn -0.000000 0.000000 1.000000
vn -0.000000 0.000000 1.000000
vn 0.000000 0.000000 1.000000
vn 0.000000 0.000000 1.000000
vn 0.000000 0.000000 1.000000
vn 0.000000 0.000000 1.000000
vn 0.000000 0.000000 1.000000
vn 0.000000 0.000000 1.000000
vn 0.000000 0.000000 1.000000
vn 0.000000 0.000000 1.000000
vn 0.000000 0.000000 1.000000
vn 0.000000 0.000000 1.000000
vn 0.000000 0.000000 1.000000
vn 0.000000 0.000000 1.000000
vn 0.000000 0.000000 -1.000000
vn 0.000000 0.000000 -1.000000
vn 0.000000 0.000000 -1.000000
vn 0.000000 0.000000 -1.000000
vn 0.000000 0.000000 -1.000000
vn 0.000000 0.000000 -1.000000
vn 0.000000 0.000000 -1.000000
vn 0.000000 0.000000 -1.000000
vn 0.000000 0.000000 -1.000000
vn 0.000000 0.000000 -1.000000
vn 0.000000 0.000000 -1.000000
vn 0.000000 0.000000 -1.000000
vn 0.000000 0.000000 -1.000000
vn 0.000000 0.000000 -1.000000
vn 0.000000 0.000000 -1.000000
vn 0.000000 0.000000 -1.000000
vn 0.000000 0.000000 -1.000000
vn 0.000000 0.000000 -1.000000
vn 0.000000 0.000000 -1.000000
vn 0.000000 0.000000 -1.000000
vn 0.000000 0.000000 -1.000000
vn 0.000000 0.000000 -1.000000
vn 0.000000 0.000000 -1.000000
vn 0.000000 0.000000 -1.000000
vn 0.000000 0.000000 -1.000000
vn 0.000000 0.000000 -1.000000
vn 0.000000 0.000000 -1.000000
vn 0.000000 0.000000 -1.000000
vn 0.000000 0.000000 -1.000000
vn 0.000000 0.000000 -1.000000
vn 0.000000 0.000000 -1.000000
vn 0.000000 0.000000 -1.000000
vn 0.000000 0.000000 -1.000000
vn 0.000000 0.000000 -1.000000
vn 0.000000 0.000000 -1.000000
vn 0.000000 0.000000 -1.000000
vn 0.000000 0.000000 -1.000000
vn 0.000000 0.000000 -1.000000
vn 0.000000 0.000000 -1.000000
vn 0.000000 0.000000 -1.000000
vn 0.000000 0.000000 -1.000000
vn 0.000000 0.000000 -1.000000
vn 0.000000 0.000000 -1.000000
vn 0.000000 0.000000 -1.000000
vn 0.000000 0.000000 -1.000000
vn 0.000000 0.000000 -1.000000
vn 0.000000 0.000000 -1.000000
vn 0.000000 0.000000 -1.000000
vn 0.000000 0.000000 -1.000000
vn 0.000000 0.000000 -1.000000
vn 0.000000 0.000000 -1.000000
vn 0.000000 0.000000 -1.000000
vn 0.000000 0.000000 -1.000000
vn 0.000000 0.000000 -1.000000
vn 0.000000 0.000000 -1.000000
vn 0.000000 0.000000 -1.000000
vn 0.000000 0.000000 -1.000000
vn 0.000000 0.000000 -1.000000
vn 0.000000 0.000000 -1.000000
vn 0.000000 0.000000 -1.000000
vn 0.000000 0.000000 -1.000000
vn 0.000000 0.000000 -1.000000
vn 0.000000 0.000000 -1.000000
vn 0.000000 0.000000 -1.000000
vn 0.000000 0.000000 -1.000000
vn 0.000000 0.000000 -1.000000
vn 0.000000 0.000000 -1.000000
vn 0.000000 0.000000 -1.000000
vn 0.000000 0.000000 -1.000000
vn 0.000000 0.000000 -1.000000
vn 0.000000 0.000000 -1.000000
vn 0.000000 0.000000 -1.000000
vn 0.000000 0.000000 -1.000000
vn 0.000000 0.000000 -1.000000
vn 0.000000 0.000000 -1.000000
vn 0.000000 0.000000 -1.000000
vn 0.000000 0.000000 -1.000000
vn 0.000000 0.000000 -1.000000
vn 0.000000 0.000000 -1.000000
vn 0.000000 0.000000 -1.000000
vn 0.000000 0.000000 -1.000000
vn 0.000000 0.000000 -1.000000
vn 0.000000 0.000000 -1.000000
vn 0.000000 0.000000 -1.000000
vn 0.000000 0.000000 -1.000000
vn 0.000000 0.000000 -1.000000
vn 0.000000 0.000000 -1.000000
vn 0.000000 0.000000 -1.000000
vn 0.000000 0.000000 -1.000000
vn 0.000000 0.000000 -1.000000
vn 0.874157 0.485643 0.000000
vn 0.874157 0.485643 0.000000
vn 0.874157 0.485643 0.000000
vn 0.874157 0.485643 0.000000
vn -0.998598 -0.052943 0.000000
vn -0.985427 -0.170097 0.000000
vn -0.985427 -0.170097 0.000000
vn -0.998598 -0.052943 0.000000
vn 0.985427 -0.170097 0.000000
vn 0.998598 -0.052943 0.000000
vn 0.998598 -0.052943 0.000000
vn 0.985427 -0.170097 0.000000
vn -0.874157 0.485643 0.000000
vn -0.874157 0.485643 0.000000
vn -0.874157 0.485643 0.000000
vn -0.874157 0.485643 0.000000
vn -0.931850 -0.362844 0.000000
vn -0.931850 -0.362844 0.000000
vn 0.931850 -0.362844 0.000000
vn 0.931850 -0.362844 0.000000
vn -0.834589 -0.550873 0.000000
vn -0.834589 -0.550873 0.000000
vn 0.834589 -0.550873 0.000000
vn 0.834589 -0.550873 0.000000
vn -0.672905 -0.739729 0.000000
vn -0.672905 -0.739729 0.000000
vn 0.672905 -0.739729 0.000000
vn 0.672905 -0.739729 0.000000
vn -0.426298 -0.904583 0.000000
vn -0.426298 -0.904583 0.000000
vn 0.426298 -0.904583 0.000000
vn 0.426298 -0.904583 0.000000
vn -0.230940 -0.972968 0.000000
vn -0.230940 -0.972968 0.000000
vn 0.230940 -0.972968 0.000000
vn 0.230940 -0.972968 0.000000
vn 0.000000 -1.000000 0.000000
vn 0.000000 -1.000000 0.000000
vn 0.894427 0.447215 0.000000
vn 0.894427 0.447215 0.000000
vn 0.894427 0.447215 0.000000
vn 0.894427 0.447215 0.000000
vn 0.344643 0.938734 0.000000
vn 0.344643 0.938734 0.000000
vn 0.344643 0.938734 0.000000
vn 0.344643 0.938734 0.000000
vn -0.894427 0.447215 0.000000
vn -0.894427 0.447215 0.000000
vn -0.894427 0.447215 0.000000
vn -0.894427 0.447215 0.000000
vn -0.344643 0.938734 0.000000
vn -0.344643 0.938734 0.000000
vn -0.344643 0.938734 0.000000
vn -0.344643 0.938734 0.000000
vn -0.393718 0.919231 0.000000
vn -0.141421 0.989950 0.000000
vn -0.141421 0.989950 0.000000
vn -0.393718 0.919231 0.000000
vn 0.141421 0.989950 0.000000
vn 0.393718 0.919231 0.000000
vn 0.393718 0.919231 0.000000
vn 0.141421 0.989950 0.000000
vn -0.544168 0.838976 0.000000
vn -0.544168 0.838976 0.000000
vn 0.544168 0.838976 0.000000
vn 0.544168 0.838976 0.000000
vn -0.995262 0.097231 0.000000
vn -0.977802 0.209529 0.000000
vn -0.977802 0.209529 0.000000
vn -0.995262 0.097231 0.000000
vn 0.977802 0.209529 0.000000
vn 0.995262 0.097231 0.000000
vn 0.995262 0.097231 0.000000
vn 0.977802 0.209529 0.000000
vn -0.958267 0.285874 0.000000
vn -0.993721 0.111885 0.000000
vn -0.993721 0.111885 0.000000
vn -0.958267 0.285874 0.000000
vn 0.993721 0.111885 0.000000
vn 0.993721 0.111885 0.000000
vn 0.958267 0.285874 0.000000
vn 0.958267 0.285874 0.000000
usemtl initialShadingGroup
f 36/183/1 37/2/2 38/181/3 39/182/4
f 40/184/5 41/185/6 42/186/7 43/8/8
f 37/9/9 36/187/10 44/188/11
f 43/12/12 45/189/13 40/190/14
f 44/191/15 46/192/16 37/17/17
f 47/193/18 45/194/19 43/20/20
f 37/21/21 46/195/22 48/196/23
f 43/24/24 49/197/25 47/198/26
f 48/199/27 50/200/28 51/29/29 37/30/30
f 52/201/31 49/202/32 43/33/33 51/34/34
f 51/35/35 50/203/36 53/204/37
f 51/38/38 54/205/39 52/206/40
f 51/41/41 53/207/42 55/208/43
f 51/44/44 55/209/45 54/210/46
f 56/211/47 57/212/48 38/213/49 37/50/50
f 58/214/51 59/215/52 43/53/53 42/216/54
f 37/55/55 60/217/56 56/218/57
f 43/58/58 59/219/59 61/220/60
f 60/222/61 37/62/62 62/63/63 63/221/64
f 43/65/65 61/223/66 64/224/67 62/68/68
f 51/69/69 62/70/70 37/71/71
f 62/72/72 51/73/73 43/74/74
f 65/75/75 66/225/76 63/226/77 62/78/78
f 67/228/79 65/80/80 62/81/81 64/227/82
f 66/231/83 65/84/84 68/229/85 69/230/86
f 65/87/87 67/232/88 70/233/89 68/234/90
f 1/91/91 4/94/92 3/93/93 2/92/94
f 8/95/95 7/98/96 6/97/97 5/96/98
f 2/99/99 9/101/100 1/100/101
f 7/102/102 8/104/103 10/103/104
f 9/105/105 2/107/106 11/106/107
f 12/108/108 7/110/109 10/109/110
f 2/111/111 13/113/112 11/112/113
f 7/114/114 12/116/115 14/115/116
f 13/117/117 2/120/118 16/119/119 15/118/120
f 17/121/121 16/124/122 7/123/123 14/122/124
f 16/125/125 18/127/126 15/126/127
f 16/128/128 17/130/129 19/129/130
f 16/131/131 20/133/132 18/132/133
f 16/134/134 19/136/135 20/135/136
f 22/137/137 2/140/138 3/139/139 21/138/140
f 24/141/141 6/144/142 7/143/143 23/142/144
f 2/145/145 22/147/146 25/146/147
f 7/148/148 26/150/149 23/149/150
f 25/151/151 28/154/152 27/153/153 2/152/154
f 7/155/155 27/158/156 29/157/157 26/156/158
f 16/159/159 2/161/160 27/160/161
f 27/162/162 7/164/163 16/163/164
f 31/165/165 27/168/166 28/167/167 30/166/168
f 32/169/169 29/172/170 27/171/171 31/170/172
f 30/173/173 34/176/174 33/175/175 31/174/176
f 31/177/177 33/180/178 35/179/179 32/178/180
f 3/3/181 4/4/182 39/182/183 38/181/184
f 4/4/185 1/1/186 36/183/187 39/182/188
f 8/5/189 5/6/190 41/185/191 40/184/192
f 5/6/193 6/7/194 42/186/195 41/185/196
f 1/10/186 9/11/197 44/188/198 36/187/187
f 10/13/199 8/14/189 40/190/192 45/189/200
f 9/15/197 11/16/201 46/192/202 44/191/198
f 12/18/203 10/19/199 45/194/200 47/193/204
f 11/22/201 13/23/205 48/196/206 46/195/202
f 14/25/207 12/26/203 47/198/204 49/197/208
f 13/27/205 15/28/209 50/200/210 48/199/206
f 17/31/211 14/32/207 49/202/208 52/201/212
f 15/36/209 18/37/213 53/204/214 50/203/210
f 19/39/215 17/40/211 52/206/212 54/205/216
f 18/42/213 20/43/217 55/208/218 53/207/214
f 20/45/217 19/46/215 54/210/216 55/209/218
f 22/47/219 21/48/220 57/212/221 56/211/222
f 21/48/223 3/49/224 38/213/225 57/212/226
f 24/51/227 23/52/228 59/215/229 58/214/230
f 6/54/231 24/51/232 58/214/233 42/216/234
f 25/56/235 22/57/236 56/218/237 60/217/238
f 23/59/239 26/60/240 61/220/241 59/219/242
f 28/64/243 25/61/235 60/222/238 63/221/244
f 26/66/240 29/67/245 64/224/246 61/223/241
f 30/76/247 28/77/248 63/226/249 66/225/250
f 29/82/251 32/79/252 67/228/253 64/227/254
f 33/85/255 34/86/256 69/230/257 68/229/258
f 34/86/256 30/83/247 66/231/250 69/230/257
f 32/88/252 35/89/259 70/233/260 67/232/253
f 35/89/259 33/90/261 68/234/262 70/233/260
